<?xml version="1.0" encoding="UTF-8" standalone="no"?>
<!DOCTYPE svg PUBLIC "-//W3C//DTD SVG 1.1//EN" "http://www.w3.org/Graphics/SVG/1.1/DTD/svg11.dtd">
<!-- Created with Vectornator (http://vectornator.io/) -->
<svg height="100%" stroke-miterlimit="10" style="fill-rule:nonzero;clip-rule:evenodd;stroke-linecap:round;stroke-linejoin:round;" version="1.1" viewBox="0 0 1024 1024" width="100%" xml:space="preserve" xmlns="http://www.w3.org/2000/svg" xmlns:vectornator="http://vectornator.io" xmlns:xlink="http://www.w3.org/1999/xlink">
<defs>
<clipPath id="TextBounds">
<rect height="150" width="1024" x="0" y="60"/>
</clipPath>
<clipPath id="TextBounds_2">
<rect height="121" width="1024" x="0" y="840"/>
</clipPath>
</defs>
<g id="Layer-1" vectornator:layerName="Layer 1">
<path d="M0 0L1024 0L1024 1024L0 1024L0 0Z" fill="#dcdcd3" fill-rule="nonzero" opacity="1" stroke="none"/>
<path d="M812 512C812 677.685 677.685 812 512 812C346.315 812 212 677.685 212 512C212 346.315 346.315 212 512 212C677.685 212 812 346.315 812 512Z" fill="#ffffff" fill-rule="nonzero" opacity="1" stroke="none"/>
<g fill="#afaf41" opacity="1" stroke="none">
<path clip-path="url(#TextBounds)" d="M205.457 97.5273L205.457 144.5L219.324 144.5C226.421 144.5 231.368 141.001 234.168 134.002C235.698 130.161 236.463 125.587 236.463 120.281C236.463 112.957 235.315 107.334 233.021 103.411C230.726 99.4886 226.16 97.5273 219.324 97.5273L205.457 97.5273ZM221.863 85.0273C226.323 85.0924 230.034 85.6133 232.996 86.5898C238.042 88.25 242.127 91.2936 245.252 95.7207C247.758 99.3014 249.467 103.175 250.379 107.342C251.29 111.508 251.746 115.48 251.746 119.256C251.746 128.826 249.826 136.932 245.984 143.572C240.776 152.524 232.736 157 221.863 157L190.857 157L190.857 85.0273L221.863 85.0273Z"/>
<path clip-path="url(#TextBounds)" d="M291.297 131.121C290.418 131.674 289.531 132.122 288.636 132.464C287.741 132.806 286.512 133.123 284.949 133.416L281.824 134.002C278.895 134.523 276.795 135.158 275.525 135.906C273.377 137.176 272.303 139.145 272.303 141.814C272.303 144.191 272.962 145.908 274.28 146.966C275.599 148.024 277.202 148.553 279.09 148.553C282.085 148.553 284.843 147.674 287.366 145.916C289.889 144.158 291.199 140.952 291.297 136.297L291.297 131.121ZM282.85 124.627C285.421 124.301 287.26 123.895 288.367 123.406C290.353 122.56 291.346 121.242 291.346 119.451C291.346 117.27 290.589 115.765 289.075 114.935C287.562 114.104 285.34 113.689 282.41 113.689C279.122 113.689 276.795 114.503 275.428 116.131C274.451 117.335 273.8 118.963 273.475 121.014L260.047 121.014C260.34 116.359 261.642 112.534 263.953 109.539C267.632 104.852 273.947 102.508 282.898 102.508C288.725 102.508 293.901 103.663 298.426 105.975C302.951 108.286 305.213 112.648 305.213 119.061L305.213 143.475C305.213 145.167 305.245 147.218 305.311 149.627C305.408 151.45 305.685 152.687 306.141 153.338C306.596 153.989 307.28 154.526 308.191 154.949L308.191 157L293.055 157C292.632 155.926 292.339 154.917 292.176 153.973C292.013 153.029 291.883 151.954 291.785 150.75C289.865 152.833 287.651 154.607 285.145 156.072C282.15 157.798 278.764 158.66 274.988 158.66C270.171 158.66 266.191 157.285 263.05 154.534C259.909 151.784 258.338 147.885 258.338 142.84C258.338 136.297 260.861 131.561 265.906 128.631C268.673 127.036 272.742 125.896 278.113 125.213L282.85 124.627Z"/>
<path clip-path="url(#TextBounds)" d="M331.873 97.4297L317.762 97.4297L317.762 84.5879L331.873 84.5879L331.873 97.4297ZM317.762 103.777L331.873 103.777L331.873 157L317.762 157L317.762 103.777Z"/>
<path clip-path="url(#TextBounds)" d="M359.559 157L345.643 157L345.643 85.0273L359.559 85.0273L359.559 157Z"/>
<path clip-path="url(#TextBounds)" d="M375.281 167.205L377.039 167.303C378.406 167.368 379.708 167.319 380.945 167.156C382.182 166.993 383.224 166.619 384.07 166.033C384.884 165.48 385.641 164.324 386.341 162.566C387.041 160.809 387.326 159.734 387.195 159.344L367.664 103.777L383.143 103.777L394.764 143.035L405.75 103.777L420.545 103.777L402.283 156.121C398.768 166.212 395.984 172.47 393.934 174.896C391.883 177.321 387.781 178.533 381.629 178.533C380.392 178.533 379.399 178.525 378.65 178.509C377.902 178.493 376.779 178.436 375.281 178.338L375.281 167.205Z"/>
<path clip-path="url(#TextBounds)" d="M454.48 85.0273L464.002 126.238L466.053 137.713L468.152 126.482L476.258 85.0273L492.127 85.0273L500.672 126.238L502.869 137.713L505.066 126.678L514.686 85.0273L529.969 85.0273L509.705 157L495.35 157L486.658 114.91L484.119 100.994L481.58 114.91L472.889 157L458.924 157L438.514 85.0273L454.48 85.0273Z"/>
<path clip-path="url(#TextBounds)" d="M560.047 147.186C564.116 147.186 567.241 145.737 569.422 142.84C571.603 139.943 572.693 135.825 572.693 130.486C572.693 125.148 571.603 121.038 569.422 118.157C567.241 115.276 564.116 113.836 560.047 113.836C555.978 113.836 552.845 115.276 550.647 118.157C548.45 121.038 547.352 125.148 547.352 130.486C547.352 135.825 548.45 139.943 550.647 142.84C552.845 145.737 555.978 147.186 560.047 147.186ZM587.293 130.486C587.293 138.299 585.047 144.98 580.555 150.53C576.062 156.08 569.243 158.855 560.096 158.855C550.949 158.855 544.129 156.08 539.637 150.53C535.145 144.98 532.898 138.299 532.898 130.486C532.898 122.804 535.145 116.147 539.637 110.516C544.129 104.884 550.949 102.068 560.096 102.068C569.243 102.068 576.062 104.884 580.555 110.516C585.047 116.147 587.293 122.804 587.293 130.486Z"/>
<path clip-path="url(#TextBounds)" d="M626.16 102.508C626.421 102.508 626.64 102.516 626.819 102.532C626.998 102.549 627.397 102.573 628.016 102.605L628.016 116.863C627.137 116.766 626.355 116.701 625.672 116.668C624.988 116.635 624.435 116.619 624.012 116.619C618.413 116.619 614.653 118.442 612.732 122.088C611.658 124.139 611.121 127.296 611.121 131.561L611.121 157L597.107 157L597.107 103.777L610.389 103.777L610.389 113.055C612.537 109.507 614.409 107.081 616.004 105.779C618.608 103.598 621.993 102.508 626.16 102.508Z"/>
<path clip-path="url(#TextBounds)" d="M636.023 85.2715L649.695 85.2715L649.695 124.041L667.029 104.021L684.266 104.021L665.662 124.383L684.998 157L668.201 157L655.457 134.246L649.695 140.252L649.695 157L636.023 157L636.023 85.2715Z"/>
<path clip-path="url(#TextBounds)" d="M715.662 147.186C719.731 147.186 722.856 145.737 725.037 142.84C727.218 139.943 728.309 135.825 728.309 130.486C728.309 125.148 727.218 121.038 725.037 118.157C722.856 115.276 719.731 113.836 715.662 113.836C711.593 113.836 708.46 115.276 706.263 118.157C704.065 121.038 702.967 125.148 702.967 130.486C702.967 135.825 704.065 139.943 706.263 142.84C708.46 145.737 711.593 147.186 715.662 147.186ZM742.908 130.486C742.908 138.299 740.662 144.98 736.17 150.53C731.678 156.08 724.858 158.855 715.711 158.855C706.564 158.855 699.744 156.08 695.252 150.53C690.76 144.98 688.514 138.299 688.514 130.486C688.514 122.804 690.76 116.147 695.252 110.516C699.744 104.884 706.564 102.068 715.711 102.068C724.858 102.068 731.678 104.884 736.17 110.516C740.662 116.147 742.908 122.804 742.908 130.486Z"/>
<path clip-path="url(#TextBounds)" d="M766.736 103.777L766.736 135.857C766.736 138.885 767.094 141.163 767.811 142.693C769.08 145.395 771.57 146.746 775.281 146.746C780.034 146.746 783.289 144.826 785.047 140.984C785.958 138.901 786.414 136.15 786.414 132.732L786.414 103.777L800.525 103.777L800.525 157L787 157L787 149.48C786.87 149.643 786.544 150.132 786.023 150.945C785.503 151.759 784.884 152.475 784.168 153.094C781.987 155.047 779.879 156.382 777.845 157.098C775.81 157.814 773.426 158.172 770.691 158.172C762.814 158.172 757.508 155.34 754.773 149.676C753.243 146.551 752.479 141.945 752.479 135.857L752.479 103.777L766.736 103.777Z"/>
<path clip-path="url(#TextBounds)" d="M808.484 114.178L808.484 104.266L815.906 104.266L815.906 89.4219L829.676 89.4219L829.676 104.266L838.318 104.266L838.318 114.178L829.676 114.178L829.676 142.303C829.676 144.484 829.952 145.843 830.506 146.38C831.059 146.917 832.752 147.186 835.584 147.186C836.007 147.186 836.455 147.177 836.927 147.161C837.399 147.145 837.863 147.12 838.318 147.088L838.318 157.488L831.727 157.732C825.151 157.96 820.659 156.821 818.25 154.314C816.687 152.719 815.906 150.262 815.906 146.941L815.906 114.178L808.484 114.178Z"/>
</g>
<g fill="#afaf41" opacity="1" stroke="none">
<path clip-path="url(#TextBounds_2)" d="M416.59 914.783C417.046 918.071 417.941 920.529 419.275 922.156C421.717 925.118 425.9 926.6 431.824 926.6C435.372 926.6 438.253 926.209 440.467 925.428C444.666 923.93 446.766 921.147 446.766 917.078C446.766 914.702 445.724 912.863 443.641 911.561C441.557 910.291 438.286 909.168 433.826 908.191L426.209 906.482C418.722 904.79 413.546 902.951 410.682 900.965C405.831 897.645 403.406 892.452 403.406 885.389C403.406 878.943 405.75 873.589 410.438 869.324C415.125 865.06 422.01 862.928 431.092 862.928C438.676 862.928 445.146 864.938 450.501 868.958C455.856 872.978 458.663 878.813 458.924 886.463L444.471 886.463C444.21 882.133 442.322 879.057 438.807 877.234C436.463 876.03 433.549 875.428 430.066 875.428C426.193 875.428 423.1 876.209 420.789 877.771C418.478 879.334 417.322 881.515 417.322 884.314C417.322 886.886 418.462 888.807 420.74 890.076C422.205 890.923 425.33 891.915 430.115 893.055L442.518 896.033C447.954 897.335 452.055 899.077 454.822 901.258C459.119 904.643 461.268 909.542 461.268 915.955C461.268 922.531 458.753 927.991 453.724 932.337C448.694 936.683 441.59 938.855 432.41 938.855C423.035 938.855 415.662 936.715 410.291 932.435C404.92 928.154 402.234 922.27 402.234 914.783L416.59 914.783Z"/>
<path clip-path="url(#TextBounds_2)" d="M465.809 894.178L465.809 884.266L473.23 884.266L473.23 869.422L487 869.422L487 884.266L495.643 884.266L495.643 894.178L487 894.178L487 922.303C487 924.484 487.277 925.843 487.83 926.38C488.383 926.917 490.076 927.186 492.908 927.186C493.331 927.186 493.779 927.177 494.251 927.161C494.723 927.145 495.187 927.12 495.643 927.088L495.643 937.488L489.051 937.732C482.475 937.96 477.983 936.821 475.574 934.314C474.012 932.719 473.23 930.262 473.23 926.941L473.23 894.178L465.809 894.178Z"/>
<path clip-path="url(#TextBounds_2)" d="M533.924 911.121C533.045 911.674 532.158 912.122 531.263 912.464C530.368 912.806 529.139 913.123 527.576 913.416L524.451 914.002C521.521 914.523 519.422 915.158 518.152 915.906C516.004 917.176 514.93 919.145 514.93 921.814C514.93 924.191 515.589 925.908 516.907 926.966C518.226 928.024 519.829 928.553 521.717 928.553C524.712 928.553 527.47 927.674 529.993 925.916C532.516 924.158 533.826 920.952 533.924 916.297L533.924 911.121ZM525.477 904.627C528.048 904.301 529.887 903.895 530.994 903.406C532.98 902.56 533.973 901.242 533.973 899.451C533.973 897.27 533.216 895.765 531.702 894.935C530.188 894.104 527.967 893.689 525.037 893.689C521.749 893.689 519.422 894.503 518.055 896.131C517.078 897.335 516.427 898.963 516.102 901.014L502.674 901.014C502.967 896.359 504.269 892.534 506.58 889.539C510.258 884.852 516.574 882.508 525.525 882.508C531.352 882.508 536.528 883.663 541.053 885.975C545.577 888.286 547.84 892.648 547.84 899.061L547.84 923.475C547.84 925.167 547.872 927.218 547.938 929.627C548.035 931.45 548.312 932.687 548.768 933.338C549.223 933.989 549.907 934.526 550.818 934.949L550.818 937L535.682 937C535.258 935.926 534.965 934.917 534.803 933.973C534.64 933.029 534.51 931.954 534.412 930.75C532.492 932.833 530.278 934.607 527.771 936.072C524.777 937.798 521.391 938.66 517.615 938.66C512.798 938.66 508.818 937.285 505.677 934.534C502.535 931.784 500.965 927.885 500.965 922.84C500.965 916.297 503.488 911.561 508.533 908.631C511.3 907.036 515.369 905.896 520.74 905.213L525.477 904.627Z"/>
<path clip-path="url(#TextBounds_2)" d="M589.1 882.508C589.36 882.508 589.58 882.516 589.759 882.532C589.938 882.549 590.337 882.573 590.955 882.605L590.955 896.863C590.076 896.766 589.295 896.701 588.611 896.668C587.928 896.635 587.374 896.619 586.951 896.619C581.352 896.619 577.592 898.442 575.672 902.088C574.598 904.139 574.061 907.296 574.061 911.561L574.061 937L560.047 937L560.047 883.777L573.328 883.777L573.328 893.055C575.477 889.507 577.348 887.081 578.943 885.779C581.548 883.598 584.933 882.508 589.1 882.508Z"/>
<path clip-path="url(#TextBounds_2)" d="M593.641 894.178L593.641 884.266L601.062 884.266L601.062 869.422L614.832 869.422L614.832 884.266L623.475 884.266L623.475 894.178L614.832 894.178L614.832 922.303C614.832 924.484 615.109 925.843 615.662 926.38C616.215 926.917 617.908 927.186 620.74 927.186C621.163 927.186 621.611 927.177 622.083 927.161C622.555 927.145 623.019 927.12 623.475 927.088L623.475 937.488L616.883 937.732C610.307 937.96 605.815 936.821 603.406 934.314C601.844 932.719 601.062 930.262 601.062 926.941L601.062 894.178L593.641 894.178Z"/>
</g>
</g>
<g id="Layer-2" vectornator:layerName="Layer 2">
<path d="M462 360C462 332.386 484.386 310 512 310C539.614 310 562 332.386 562 360C562 387.614 539.614 410 512 410C484.386 410 462 387.614 462 360Z" fill="none" opacity="1" stroke="#000000" stroke-linecap="round" stroke-linejoin="round" stroke-width="20"/>
<path d="M510.603 439.508L513.397 565.676" fill="none" opacity="1" stroke="#000000" stroke-linecap="round" stroke-linejoin="round" stroke-width="20"/>
<path d="M487.23 584.411L460 655.591" fill="none" opacity="1" stroke="#000000" stroke-linecap="round" stroke-linejoin="round" stroke-width="20"/>
<path d="M460 675.383L461.222 756.424" fill="none" opacity="1" stroke="#000000" stroke-linecap="round" stroke-linejoin="round" stroke-width="20"/>
<path d="M537.838 580L575.418 649.232" fill="none" opacity="1" stroke="#000000" stroke-linecap="round" stroke-linejoin="round" stroke-width="20"/>
<path d="M580.641 673.658L584.479 744.698" fill="none" opacity="1" stroke="#000000" stroke-linecap="round" stroke-linejoin="round" stroke-width="20"/>
<path d="M471.777 441.28L411.777 486.312" fill="none" opacity="1" stroke="#000000" stroke-linecap="round" stroke-linejoin="round" stroke-width="20"/>
<path d="M549.383 435L609.383 477.691" fill="none" opacity="1" stroke="#000000" stroke-linecap="round" stroke-linejoin="round" stroke-width="20"/>
<path d="M629.277 476.328L674.737 421.558" fill="none" opacity="1" stroke="#000000" stroke-linecap="round" stroke-linejoin="round" stroke-width="20"/>
<path d="M408.239 506.102L408.239 591.102" fill="none" opacity="1" stroke="#000000" stroke-linecap="round" stroke-linejoin="round" stroke-width="20"/>
</g>
</svg>
